<svg xmlns="http://www.w3.org/2000/svg" viewBox="0 0 24 24" fill="#25D366"><path d="M12 2a10 10 0 0 0-8.66 15l-1.17 4.27 4.38-1.15A10 10 0 1 0 12 2Zm5.3 13.92c-.22.62-1.3 1.18-1.8 1.26-.46.07-1.03.1-1.66-.1-.38-.12-.87-.28-1.5-.55-2.65-1.15-4.38-3.96-4.51-4.13-.14-.18-1.08-1.44-1.08-2.74s.68-1.94.92-2.21c.24-.27.52-.34.7-.34h.5c.16 0 .37-.06.58.43.22.53.74 1.83.8 1.97.07.13.11.3.02.48-.08.18-.13.3-.27.46-.13.16-.28.36-.4.48-.13.13-.27.27-.12.53.15.27.68 1.12 1.46 1.82 1.01.9 1.86 1.18 2.13 1.31.27.14.43.12.59-.07.16-.18.67-.78.84-1.05.17-.27.35-.22.59-.13.24.08 1.53.72 1.8.85.27.13.45.2.52.31.06.12.06.68-.16 1.3Z"/></svg>